<svg width="24" height="24" viewBox="0 0 24 24" fill="none" xmlns="http://www.w3.org/2000/svg">
<path fill-rule="evenodd" clip-rule="evenodd" d="M17.3518 4.58887C15.5397 5.89844 13.4914 7.8395 11.7772 9.53343C11.7463 9.56392 11.7157 9.59436 11.6853 9.62473L14.3741 12.3135C14.4069 12.2815 14.4398 12.2491 14.4729 12.2165C16.1832 10.5264 18.1292 8.48463 19.435 6.67294C20.0923 5.76106 20.5499 4.95787 20.7528 4.31968C20.96 3.66773 20.8441 3.40446 20.7201 3.28069L20.7194 3.27999C20.606 3.16648 20.3533 3.04933 19.7009 3.2617C19.0651 3.46864 18.2638 3.92984 17.3518 4.58887ZM13.2689 13.3297L10.6638 10.7245C9.9097 11.6038 9.37043 12.4085 9.00859 13.1024C9.39467 13.3163 9.75768 13.587 10.0853 13.9146C10.4139 14.2432 10.6852 14.6072 10.8993 14.9945C11.5892 14.6344 12.3813 14.0914 13.2689 13.3297ZM11.4132 16.4157C11.7047 17.9356 11.2621 19.5684 10.0853 20.7451C9.55993 21.2705 8.78278 21.626 8.00628 21.8759C7.21066 22.1319 6.32429 22.3051 5.49928 22.4166C4.67235 22.5284 3.88625 22.5811 3.28304 22.5892C2.98317 22.5933 2.71556 22.5865 2.50459 22.5679C2.40112 22.5588 2.29316 22.5453 2.1945 22.5236C2.14563 22.5128 2.08244 22.4964 2.0159 22.4704C1.96378 22.4501 1.83684 22.3969 1.71993 22.28L1.71936 22.2795C1.60281 22.1627 1.54979 22.036 1.52946 21.9838C1.50352 21.9173 1.48718 21.8542 1.47641 21.8053C1.45468 21.7067 1.44119 21.5987 1.43206 21.4952C1.41345 21.2842 1.40669 21.0166 1.41073 20.7167C1.41886 20.1135 1.47149 19.3274 1.58329 18.5005C1.69483 17.6755 1.86802 16.7892 2.12401 15.9936C2.37384 15.2171 2.72935 14.44 3.25475 13.9146C4.43239 12.737 6.06685 12.2946 7.58771 12.5875C8.18712 11.3786 9.20589 9.96546 10.7228 8.46648C12.4367 6.77293 14.5576 4.75746 16.4732 3.37312C17.4251 2.6852 18.3772 2.1151 19.2366 1.83537C20.0792 1.56107 21.0633 1.50186 21.7806 2.21987C22.4998 2.93852 22.453 3.92267 22.1823 4.77412C21.9071 5.6396 21.3395 6.59596 20.6518 7.55003C19.2678 9.47025 17.2449 11.586 15.5272 13.2834C14.0095 14.7831 12.6309 15.8141 11.4132 16.4157ZM9.02467 14.9753C7.72424 13.6749 5.61583 13.6749 4.3154 14.9753C4.04414 15.2466 3.77825 15.7496 3.55191 16.453C3.33173 17.1373 3.17398 17.9307 3.06976 18.7015C2.96581 19.4703 2.91788 20.196 2.9106 20.7369C2.90883 20.8682 2.9095 20.9856 2.91208 21.0879C3.01429 21.0905 3.13162 21.0911 3.26281 21.0894C3.80369 21.0821 4.52941 21.0341 5.29828 20.9302C6.06908 20.8259 6.86249 20.6682 7.54685 20.448C8.25036 20.2216 8.75341 19.9557 9.02467 19.6845C10.3251 18.3841 10.3251 16.2757 9.02467 14.9753Z" fill="white"/>
</svg>
