<svg width="25" height="25" viewBox="0 0 25 25" fill="none" xmlns="http://www.w3.org/2000/svg">
<path fill-rule="evenodd" clip-rule="evenodd" d="M4.94792 4.6875C4.80409 4.6875 4.6875 4.80409 4.6875 4.94792V8.59375C4.6875 9.02522 4.33772 9.375 3.90625 9.375C3.47478 9.375 3.125 9.02522 3.125 8.59375V4.94792C3.125 3.94115 3.94115 3.125 4.94792 3.125H8.59375C9.02522 3.125 9.375 3.47478 9.375 3.90625C9.375 4.33772 9.02522 4.6875 8.59375 4.6875H4.94792ZM15.625 3.90625C15.625 3.47478 15.9748 3.125 16.4062 3.125H20.0521C21.0589 3.125 21.875 3.94115 21.875 4.94792V8.59375C21.875 9.02522 21.5252 9.375 21.0938 9.375C20.6623 9.375 20.3125 9.02522 20.3125 8.59375V4.94792C20.3125 4.80409 20.1959 4.6875 20.0521 4.6875H16.4062C15.9748 4.6875 15.625 4.33772 15.625 3.90625ZM3.90625 15.625C4.33772 15.625 4.6875 15.9748 4.6875 16.4062V20.0521C4.6875 20.1959 4.80409 20.3125 4.94792 20.3125H8.59375C9.02522 20.3125 9.375 20.6623 9.375 21.0938C9.375 21.5252 9.02522 21.875 8.59375 21.875H4.94792C3.94115 21.875 3.125 21.0589 3.125 20.0521V16.4062C3.125 15.9748 3.47478 15.625 3.90625 15.625ZM21.0938 15.625C21.5252 15.625 21.875 15.9748 21.875 16.4062V20.0521C21.875 21.0589 21.0589 21.875 20.0521 21.875H16.4062C15.9748 21.875 15.625 21.5252 15.625 21.0938C15.625 20.6623 15.9748 20.3125 16.4062 20.3125H20.0521C20.1959 20.3125 20.3125 20.1959 20.3125 20.0521V16.4062C20.3125 15.9748 20.6623 15.625 21.0938 15.625Z" fill="white"/>
</svg>
